{
  "accessors": [
    {
      "bufferView": 2,
      "componentType": 5126,
      "count": 454,
      "max": [
        0.9999998807907104,
        1.0,
        0.9999998807907104
      ],
      "min": [
        -0.9999998807907104,
        -1.0,
        -1.0329543352127075
      ],
      "type": "VEC3"
    },
    {
      "bufferView": 2,
      "byteOffset": 5448,
      "componentType": 5126,
      "count": 454,
      "max": [
        1.0,
        1.0,
        1.0
      ],
      "min": [
        -1.0,
        -1.0,
        -1.0
      ],
      "type": "VEC3"
    },
    {
      "bufferView": 1,
      "componentType": 5126,
      "count": 454,
      "max": [
        1.9682703018188477,
        1.0
      ],
      "min": [
        -0.9652931094169617,
        0.0
      ],
      "type": "VEC2"
    },
    {
      "bufferView": 0,
      "componentType": 5125,
      "count": 894,
      "type": "SCALAR"
    },
    {
      "bufferView": 2,
      "byteOffset": 10896,
      "componentType": 5126,
      "count": 96,
      "max": [
        1.0,
        11.5,
        1.0
      ],
      "min": [
        -1.0,
        -1.0,
        -1.0
      ],
      "type": "VEC3"
    },
    {
      "bufferView": 2,
      "byteOffset": 12048,
      "componentType": 5126,
      "count": 96,
      "max": [
        1.0,
        1.0,
        1.0
      ],
      "min": [
        -1.0,
        -1.0,
        -1.0
      ],
      "type": "VEC3"
    },
    {
      "bufferView": 1,
      "byteOffset": 3632,
      "componentType": 5126,
      "count": 96,
      "max": [
        0.9643141627311707,
        0.9859470129013062
      ],
      "min": [
        0.027103347703814507,
        0.02008157968521118
      ],
      "type": "VEC2"
    },
    {
      "bufferView": 0,
      "byteOffset": 3576,
      "componentType": 5125,
      "count": 144,
      "type": "SCALAR"
    },
    {
      "bufferView": 2,
      "byteOffset": 13200,
      "componentType": 5126,
      "count": 48,
      "max": [
        -0.44313985109329224,
        2.6335463523864746,
        0.9999999403953552
      ],
      "min": [
        -1.2197586297988892,
        -1.8072803020477295,
        -0.9999998807907104
      ],
      "type": "VEC3"
    },
    {
      "bufferView": 2,
      "byteOffset": 13776,
      "componentType": 5126,
      "count": 48,
      "max": [
        1.0,
        1.0,
        1.0
      ],
      "min": [
        -1.0,
        -1.0,
        -1.0
      ],
      "type": "VEC3"
    },
    {
      "bufferView": 1,
      "byteOffset": 4400,
      "componentType": 5126,
      "count": 48,
      "max": [
        0.4338368773460388,
        132.7073211669922
      ],
      "min": [
        0.013203372247517109,
        -131.6518096923828
      ],
      "type": "VEC2"
    },
    {
      "bufferView": 0,
      "byteOffset": 4152,
      "componentType": 5125,
      "count": 72,
      "type": "SCALAR"
    },
    {
      "bufferView": 2,
      "byteOffset": 14352,
      "componentType": 5126,
      "count": 96,
      "max": [
        1.0,
        11.5,
        1.0
      ],
      "min": [
        -1.0,
        -1.0,
        -1.0
      ],
      "type": "VEC3"
    },
    {
      "bufferView": 2,
      "byteOffset": 15504,
      "componentType": 5126,
      "count": 96,
      "max": [
        1.0,
        1.0,
        1.0
      ],
      "min": [
        -1.0,
        -1.0,
        -1.0
      ],
      "type": "VEC3"
    },
    {
      "bufferView": 1,
      "byteOffset": 4784,
      "componentType": 5126,
      "count": 96,
      "max": [
        0.9643141627311707,
        0.9859470129013062
      ],
      "min": [
        0.027103347703814507,
        0.02008157968521118
      ],
      "type": "VEC2"
    },
    {
      "bufferView": 0,
      "byteOffset": 4440,
      "componentType": 5125,
      "count": 144,
      "type": "SCALAR"
    },
    {
      "bufferView": 2,
      "byteOffset": 16656,
      "componentType": 5126,
      "count": 96,
      "max": [
        1.0,
        11.5,
        1.0
      ],
      "min": [
        -1.0,
        -1.0,
        -1.0
      ],
      "type": "VEC3"
    },
    {
      "bufferView": 2,
      "byteOffset": 17808,
      "componentType": 5126,
      "count": 96,
      "max": [
        1.0,
        1.0,
        1.0
      ],
      "min": [
        -1.0,
        -1.0,
        -1.0
      ],
      "type": "VEC3"
    },
    {
      "bufferView": 1,
      "byteOffset": 5552,
      "componentType": 5126,
      "count": 96,
      "max": [
        0.9711593389511108,
        1.0
      ],
      "min": [
        0.028840569779276848,
        0.0
      ],
      "type": "VEC2"
    },
    {
      "bufferView": 0,
      "byteOffset": 5016,
      "componentType": 5125,
      "count": 144,
      "type": "SCALAR"
    },
    {
      "bufferView": 2,
      "byteOffset": 18960,
      "componentType": 5126,
      "count": 96,
      "max": [
        1.0,
        11.5,
        1.0
      ],
      "min": [
        -1.0,
        -1.0,
        -1.0
      ],
      "type": "VEC3"
    },
    {
      "bufferView": 2,
      "byteOffset": 20112,
      "componentType": 5126,
      "count": 96,
      "max": [
        1.0,
        1.0,
        1.0
      ],
      "min": [
        -1.0,
        -1.0,
        -1.0
      ],
      "type": "VEC3"
    },
    {
      "bufferView": 1,
      "byteOffset": 6320,
      "componentType": 5126,
      "count": 96,
      "max": [
        0.9711593389511108,
        1.0
      ],
      "min": [
        0.028840569779276848,
        0.0
      ],
      "type": "VEC2"
    },
    {
      "bufferView": 0,
      "byteOffset": 5592,
      "componentType": 5125,
      "count": 144,
      "type": "SCALAR"
    }
  ],
  "asset": {
    "extras": {
      "author": "Kroko.blend (https://sketchfab.com/jaromir.ternavskiy)",
      "license": "CC-BY-4.0 (http://creativecommons.org/licenses/by/4.0/)",
      "source": "https://sketchfab.com/3d-models/dimm-ram-stick-8401e8e91db9418fb00f94e340c0f944",
      "title": "DIMM RAM Stick"
    },
    "generator": "Sketchfab-16.67.0",
    "version": "2.0"
  },
  "bufferViews": [
    {
      "buffer": 0,
      "byteLength": 6168,
      "name": "floatBufferViews",
      "target": 34963
    },
    {
      "buffer": 0,
      "byteLength": 7088,
      "byteOffset": 6168,
      "byteStride": 8,
      "name": "floatBufferViews",
      "target": 34962
    },
    {
      "buffer": 0,
      "byteLength": 21264,
      "byteOffset": 13256,
      "byteStride": 12,
      "name": "floatBufferViews",
      "target": 34962
    }
  ],
  "buffers": [
    {
      "byteLength": 34520,
      "uri": "scene.bin"
    }
  ],
  "images": [
    {
      "uri": "textures/Material_baseColor.png"
    },
    {
      "uri": "textures/Material.002_baseColor.png"
    },
    {
      "uri": "textures/Material.001_baseColor.jpeg"
    }
  ],
  "materials": [
    {
      "doubleSided": true,
      "name": "Material",
      "pbrMetallicRoughness": {
        "baseColorTexture": {
          "index": 0
        },
        "metallicFactor": 0.0,
        "roughnessFactor": 0.0
      }
    },
    {
      "doubleSided": true,
      "name": "Material.002",
      "pbrMetallicRoughness": {
        "baseColorTexture": {
          "index": 1
        },
        "metallicFactor": 0.37638209945020784,
        "roughnessFactor": 0.0
      }
    },
    {
      "doubleSided": true,
      "name": "Material.001",
      "pbrMetallicRoughness": {
        "baseColorTexture": {
          "index": 2
        },
        "metallicFactor": 0.24838170935378087,
        "roughnessFactor": 0.03237800343772479
      }
    }
  ],
  "meshes": [
    {
      "name": "Cube_Material_0",
      "primitives": [
        {
          "attributes": {
            "NORMAL": 1,
            "POSITION": 0,
            "TEXCOORD_0": 2
          },
          "indices": 3,
          "material": 0,
          "mode": 4
        }
      ]
    },
    {
      "name": "Cube.001_Material.002_0",
      "primitives": [
        {
          "attributes": {
            "NORMAL": 5,
            "POSITION": 4,
            "TEXCOORD_0": 6
          },
          "indices": 7,
          "material": 1,
          "mode": 4
        }
      ]
    },
    {
      "name": "Cube.002_Material.001_0",
      "primitives": [
        {
          "attributes": {
            "NORMAL": 9,
            "POSITION": 8,
            "TEXCOORD_0": 10
          },
          "indices": 11,
          "material": 2,
          "mode": 4
        }
      ]
    },
    {
      "name": "Cube.003_Material.002_0",
      "primitives": [
        {
          "attributes": {
            "NORMAL": 13,
            "POSITION": 12,
            "TEXCOORD_0": 14
          },
          "indices": 15,
          "material": 1,
          "mode": 4
        }
      ]
    },
    {
      "name": "Cube.004_Material.002_0",
      "primitives": [
        {
          "attributes": {
            "NORMAL": 17,
            "POSITION": 16,
            "TEXCOORD_0": 18
          },
          "indices": 19,
          "material": 1,
          "mode": 4
        }
      ]
    },
    {
      "name": "Cube.005_Material.002_0",
      "primitives": [
        {
          "attributes": {
            "NORMAL": 21,
            "POSITION": 20,
            "TEXCOORD_0": 22
          },
          "indices": 23,
          "material": 1,
          "mode": 4
        }
      ]
    }
  ],
  "nodes": [
    {
      "children": [
        1
      ],
      "matrix": [
        1.0,
        0.0,
        0.0,
        0.0,
        0.0,
        2.220446049250313e-16,
        -1.0,
        0.0,
        0.0,
        1.0,
        2.220446049250313e-16,
        0.0,
        0.0,
        0.0,
        0.0,
        1.0
      ],
      "name": "Sketchfab_model"
    },
    {
      "children": [
        2
      ],
      "matrix": [
        0.009999999776482582,
        0.0,
        0.0,
        0.0,
        0.0,
        0.0,
        0.009999999776482582,
        0.0,
        0.0,
        -0.009999999776482582,
        0.0,
        0.0,
        0.0,
        0.0,
        0.0,
        1.0
      ],
      "name": "610e47a845a64900ac5d3de1ec9d9c2d.fbx"
    },
    {
      "children": [
        3,
        5,
        7,
        9,
        11,
        13
      ],
      "name": "RootNode"
    },
    {
      "children": [
        4
      ],
      "matrix": [
        109.63350677490234,
        0.0,
        0.0,
        0.0,
        0.0,
        -4.090938358967778e-06,
        -25.110000610351232,
        0.0,
        0.0,
        1.0287001132964952,
        -1.6759652134872116e-07,
        0.0,
        29.59793472290039,
        -0.552968442440033,
        0.0,
        1.0
      ],
      "name": "Cube"
    },
    {
      "mesh": 0,
      "name": "Cube_Material_0"
    },
    {
      "children": [
        6
      ],
      "matrix": [
        4.2487472308548156e-07,
        -1.0791368095818053e-15,
        -9.7200002670288,
        0.0,
        -6.48000097274779,
        -2.8324985012901274e-07,
        -2.832498504887251e-07,
        0.0,
        -3.89468500130165e-08,
        0.891000032424926,
        -1.7805757516918465e-15,
        0.0,
        118.59146118164063,
        0.42645180225372314,
        -2.505627155303955,
        1.0
      ],
      "name": "Cube.001"
    },
    {
      "mesh": 1,
      "name": "Cube.001_Material.002_0"
    },
    {
      "children": [
        8
      ],
      "matrix": [
        4.2487472308548156e-07,
        -1.0791368095818053e-15,
        -9.7200002670288,
        0.0,
        -44.71200561523429,
        -1.9544239179507933e-06,
        -1.9544239204328082e-06,
        0.0,
        -4.4984045564447184e-08,
        1.0291149616241446,
        -2.0565848256864493e-15,
        0.0,
        52.4332389831543,
        -0.5465130805969238,
        13.222257614135742,
        1.0
      ],
      "name": "Cube.002"
    },
    {
      "mesh": 2,
      "name": "Cube.002_Material.001_0"
    },
    {
      "children": [
        10
      ],
      "matrix": [
        4.2487472308548156e-07,
        -1.0791368095818053e-15,
        -9.7200002670288,
        0.0,
        -6.48000097274779,
        -2.8324985012901274e-07,
        -2.832498504887251e-07,
        0.0,
        -3.89468500130165e-08,
        0.891000032424926,
        -1.7805757516918465e-15,
        0.0,
        5.933343410491943,
        0.42645180225372314,
        -2.505627155303955,
        1.0
      ],
      "name": "Cube.003"
    },
    {
      "mesh": 3,
      "name": "Cube.003_Material.002_0"
    },
    {
      "children": [
        12
      ],
      "matrix": [
        4.2487472308548156e-07,
        -1.0791368095818053e-15,
        -9.7200002670288,
        0.0,
        -6.48000097274779,
        -2.8324985012901274e-07,
        -2.832498504887251e-07,
        0.0,
        -3.89468500130165e-08,
        0.891000032424926,
        -1.7805757516918465e-15,
        0.0,
        118.59146118164063,
        -1.290857195854187,
        -2.505627155303955,
        1.0
      ],
      "name": "Cube.004"
    },
    {
      "mesh": 4,
      "name": "Cube.004_Material.002_0"
    },
    {
      "children": [
        14
      ],
      "matrix": [
        4.2487472308548156e-07,
        -1.0791368095818053e-15,
        -9.7200002670288,
        0.0,
        -6.48000097274779,
        -2.8324985012901274e-07,
        -2.832498504887251e-07,
        0.0,
        -3.89468500130165e-08,
        0.891000032424926,
        -1.7805757516918465e-15,
        0.0,
        5.933343410491943,
        -1.290857195854187,
        -2.505627155303955,
        1.0
      ],
      "name": "Cube.005"
    },
    {
      "mesh": 5,
      "name": "Cube.005_Material.002_0"
    }
  ],
  "samplers": [
    {
      "magFilter": 9729,
      "minFilter": 9987,
      "wrapS": 10497,
      "wrapT": 10497
    }
  ],
  "scene": 0,
  "scenes": [
    {
      "name": "Sketchfab_Scene",
      "nodes": [
        0
      ]
    }
  ],
  "textures": [
    {
      "sampler": 0,
      "source": 0
    },
    {
      "sampler": 0,
      "source": 1
    },
    {
      "sampler": 0,
      "source": 2
    }
  ]
}
