{
  "accessors": [
    {
      "bufferView": 2,
      "componentType": 5126,
      "count": 126,
      "max": [
        0.9489270448684692,
        8.187101485646053e-08,
        4.07612419128418
      ],
      "min": [
        -0.962497353553772,
        -7.955841851980949e-08,
        -2.129697799682617
      ],
      "type": "VEC3"
    },
    {
      "bufferView": 2,
      "byteOffset": 1512,
      "componentType": 5126,
      "count": 126,
      "max": [
        0.0,
        1.0,
        0.0
      ],
      "min": [
        0.0,
        1.0,
        0.0
      ],
      "type": "VEC3"
    },
    {
      "bufferView": 3,
      "componentType": 5126,
      "count": 126,
      "max": [
        5.766369213233702e-06,
        0.0,
        -1.0,
        -1.0
      ],
      "min": [
        -0.0002396510826656595,
        0.0,
        -1.0,
        -1.0
      ],
      "type": "VEC4"
    },
    {
      "bufferView": 1,
      "componentType": 5126,
      "count": 126,
      "max": [
        0.9909931421279907,
        0.9744634628295898
      ],
      "min": [
        0.01847200095653534,
        0.01875138282775879
      ],
      "type": "VEC2"
    },
    {
      "bufferView": 1,
      "byteOffset": 1008,
      "componentType": 5126,
      "count": 126,
      "max": [
        0.9909931421279907,
        0.9744634628295898
      ],
      "min": [
        0.01847200095653534,
        0.01875138282775879
      ],
      "type": "VEC2"
    },
    {
      "bufferView": 0,
      "componentType": 5125,
      "count": 450,
      "type": "SCALAR"
    }
  ],
  "asset": {
    "extras": {
      "author": "darky.vip21 (https://sketchfab.com/darky.vip21)",
      "license": "CC-BY-4.0 (http://creativecommons.org/licenses/by/4.0/)",
      "source": "https://sketchfab.com/3d-models/kingston-fury-beast-ddr5-ram-stick-2a7a6efdcb294829b26fb9503a90e572",
      "title": "Kingston Fury Beast DDR5 RAM Stick"
    },
    "generator": "Sketchfab-0.3.0",
    "version": "2.0"
  },
  "bufferViews": [
    {
      "buffer": 0,
      "byteLength": 1800,
      "name": "floatBufferViews",
      "target": 34963
    },
    {
      "buffer": 0,
      "byteLength": 2016,
      "byteOffset": 1800,
      "byteStride": 8,
      "name": "floatBufferViews",
      "target": 34962
    },
    {
      "buffer": 0,
      "byteLength": 3024,
      "byteOffset": 3816,
      "byteStride": 12,
      "name": "floatBufferViews",
      "target": 34962
    },
    {
      "buffer": 0,
      "byteLength": 2016,
      "byteOffset": 6840,
      "byteStride": 16,
      "name": "floatBufferViews",
      "target": 34962
    }
  ],
  "buffers": [
    {
      "byteLength": 8856,
      "uri": "scene.bin"
    }
  ],
  "images": [
    {
      "uri": "textures/Material.039_baseColor.png"
    },
    {
      "uri": "textures/Material.039_normal.png"
    }
  ],
  "materials": [
    {
      "doubleSided": true,
      "name": "Material.039",
      "normalTexture": {
        "index": 1
      },
      "pbrMetallicRoughness": {
        "baseColorTexture": {
          "index": 0
        },
        "metallicFactor": 0.0,
        "roughnessFactor": 0.740909
      }
    }
  ],
  "meshes": [
    {
      "name": "Object_0",
      "primitives": [
        {
          "attributes": {
            "NORMAL": 1,
            "POSITION": 0,
            "TANGENT": 2,
            "TEXCOORD_0": 3,
            "TEXCOORD_1": 4
          },
          "indices": 5,
          "material": 0,
          "mode": 4
        }
      ]
    }
  ],
  "nodes": [
    {
      "children": [
        1
      ],
      "matrix": [
        1.0,
        0.0,
        0.0,
        0.0,
        0.0,
        2.220446049250313e-16,
        -1.0,
        0.0,
        0.0,
        1.0,
        2.220446049250313e-16,
        0.0,
        0.0,
        0.0,
        0.0,
        1.0
      ],
      "name": "Sketchfab_model"
    },
    {
      "children": [
        2
      ],
      "name": "root"
    },
    {
      "children": [
        3
      ],
      "matrix": [
        1.0,
        0.0,
        0.0,
        0.0,
        0.0,
        2.220446049250313e-16,
        1.0,
        0.0,
        0.0,
        -1.0,
        2.220446049250313e-16,
        0.0,
        0.0,
        0.0,
        0.0,
        1.0
      ],
      "name": "GLTF_SceneRootNode"
    },
    {
      "children": [
        4
      ],
      "matrix": [
        0.2054116427898407,
        0.0,
        0.0,
        0.0,
        0.0,
        0.2054116427898407,
        0.0,
        0.0,
        0.0,
        0.0,
        0.2229224145412445,
        0.0,
        -0.00920480489730835,
        -0.07169747352600098,
        -0.2266932725906372,
        1.0
      ],
      "name": "ram_stick.001_0"
    },
    {
      "mesh": 0,
      "name": "Object_4"
    }
  ],
  "samplers": [
    {
      "magFilter": 9729,
      "minFilter": 9987,
      "wrapS": 10497,
      "wrapT": 10497
    }
  ],
  "scene": 0,
  "scenes": [
    {
      "name": "Sketchfab_Scene",
      "nodes": [
        0
      ]
    }
  ],
  "textures": [
    {
      "sampler": 0,
      "source": 0
    },
    {
      "sampler": 0,
      "source": 1
    }
  ]
}
