{
  "accessors": [
    {
      "bufferView": 2,
      "componentType": 5126,
      "count": 13583,
      "max": [
        648.1367797851563,
        10.037792205810547,
        140.87330627441406
      ],
      "min": [
        -651.8632202148438,
        -5.2051568031311035,
        -139.1266632080078
      ],
      "type": "VEC3"
    },
    {
      "bufferView": 2,
      "byteOffset": 162996,
      "componentType": 5126,
      "count": 13583,
      "max": [
        1.0,
        1.0,
        1.0
      ],
      "min": [
        -1.0,
        -1.0,
        -1.0
      ],
      "type": "VEC3"
    },
    {
      "bufferView": 3,
      "componentType": 5126,
      "count": 13583,
      "max": [
        1.0,
        1.0,
        1.0,
        1.0
      ],
      "min": [
        -1.0,
        -1.0,
        -1.0,
        -1.0
      ],
      "type": "VEC4"
    },
    {
      "bufferView": 1,
      "componentType": 5126,
      "count": 13583,
      "max": [
        0.9998931884765625,
        0.9933071732521057
      ],
      "min": [
        8.794362656772137e-05,
        0.004620909690856934
      ],
      "type": "VEC2"
    },
    {
      "bufferView": 1,
      "byteOffset": 108664,
      "componentType": 5126,
      "count": 13583,
      "max": [
        0.9998931884765625,
        0.9933071732521057
      ],
      "min": [
        8.794362656772137e-05,
        0.004620909690856934
      ],
      "type": "VEC2"
    },
    {
      "bufferView": 1,
      "byteOffset": 217328,
      "componentType": 5126,
      "count": 13583,
      "max": [
        0.9998931884765625,
        0.9933071732521057
      ],
      "min": [
        8.794362656772137e-05,
        0.004620909690856934
      ],
      "type": "VEC2"
    },
    {
      "bufferView": 1,
      "byteOffset": 325992,
      "componentType": 5126,
      "count": 13583,
      "max": [
        0.9998931884765625,
        0.9933071732521057
      ],
      "min": [
        8.794362656772137e-05,
        0.004620909690856934
      ],
      "type": "VEC2"
    },
    {
      "bufferView": 1,
      "byteOffset": 434656,
      "componentType": 5126,
      "count": 13583,
      "max": [
        0.9998931884765625,
        0.9933071732521057
      ],
      "min": [
        8.794362656772137e-05,
        0.004620909690856934
      ],
      "type": "VEC2"
    },
    {
      "bufferView": 1,
      "byteOffset": 543320,
      "componentType": 5126,
      "count": 13583,
      "max": [
        0.9998931884765625,
        0.9933071732521057
      ],
      "min": [
        8.794362656772137e-05,
        0.004620909690856934
      ],
      "type": "VEC2"
    },
    {
      "bufferView": 0,
      "componentType": 5125,
      "count": 21204,
      "type": "SCALAR"
    }
  ],
  "asset": {
    "extras": {
      "author": "CommunicationNode (https://sketchfab.com/Starven38)",
      "license": "CC-BY-4.0 (http://creativecommons.org/licenses/by/4.0/)",
      "source": "https://sketchfab.com/3d-models/random-access-memory-ram-ddr3-d2715d60f139421eb6028efd5153fdaf",
      "title": "Random access memory (RAM) DDR3"
    },
    "generator": "Sketchfab-17.8.0",
    "version": "2.0"
  },
  "bufferViews": [
    {
      "buffer": 0,
      "byteLength": 84816,
      "name": "floatBufferViews",
      "target": 34963
    },
    {
      "buffer": 0,
      "byteLength": 651984,
      "byteOffset": 84816,
      "byteStride": 8,
      "name": "floatBufferViews",
      "target": 34962
    },
    {
      "buffer": 0,
      "byteLength": 325992,
      "byteOffset": 736800,
      "byteStride": 12,
      "name": "floatBufferViews",
      "target": 34962
    },
    {
      "buffer": 0,
      "byteLength": 217328,
      "byteOffset": 1062792,
      "byteStride": 16,
      "name": "floatBufferViews",
      "target": 34962
    }
  ],
  "buffers": [
    {
      "byteLength": 1280120,
      "uri": "scene.bin"
    }
  ],
  "extensionsUsed": [
    "KHR_materials_clearcoat",
    "KHR_materials_specular"
  ],
  "images": [
    {
      "uri": "textures/MEm002_baseColor.png"
    },
    {
      "uri": "textures/MEm002_metallicRoughness.png"
    },
    {
      "uri": "textures/MEm002_normal.png"
    }
  ],
  "materials": [
    {
      "extensions": {
        "KHR_materials_clearcoat": {
          "clearcoatFactor": 0.4190488961490168,
          "clearcoatNormalTexture": {
            "index": 2
          },
          "clearcoatRoughnessFactor": 0.10209554924357864
        },
        "KHR_materials_specular": {
          "specularColorFactor": [
            1.0,
            1.0,
            1.0
          ],
          "specularFactor": 0.8822884031646572
        }
      },
      "name": "MEm002",
      "normalTexture": {
        "index": 2
      },
      "occlusionTexture": {
        "index": 3
      },
      "pbrMetallicRoughness": {
        "baseColorTexture": {
          "index": 0
        },
        "metallicRoughnessTexture": {
          "index": 1
        },
        "roughnessFactor": 0.7116212163694212
      }
    }
  ],
  "meshes": [
    {
      "name": "Object_0",
      "primitives": [
        {
          "attributes": {
            "NORMAL": 1,
            "POSITION": 0,
            "TANGENT": 2,
            "TEXCOORD_0": 3,
            "TEXCOORD_1": 4,
            "TEXCOORD_2": 5,
            "TEXCOORD_3": 6,
            "TEXCOORD_4": 7,
            "TEXCOORD_5": 8
          },
          "indices": 9,
          "material": 0,
          "mode": 4
        }
      ]
    }
  ],
  "nodes": [
    {
      "children": [
        1
      ],
      "matrix": [
        1.0,
        0.0,
        0.0,
        0.0,
        0.0,
        2.220446049250313e-16,
        -1.0,
        0.0,
        0.0,
        1.0,
        2.220446049250313e-16,
        0.0,
        0.0,
        0.0,
        0.0,
        1.0
      ],
      "name": "Sketchfab_model"
    },
    {
      "children": [
        2
      ],
      "name": "root"
    },
    {
      "children": [
        3
      ],
      "matrix": [
        1.0,
        0.0,
        0.0,
        0.0,
        0.0,
        2.220446049250313e-16,
        1.0,
        0.0,
        0.0,
        -1.0,
        2.220446049250313e-16,
        0.0,
        0.0,
        0.0,
        0.0,
        1.0
      ],
      "name": "GLTF_SceneRootNode"
    },
    {
      "children": [
        4
      ],
      "name": "MEmoryQ_MEm002_0_0"
    },
    {
      "mesh": 0,
      "name": "Object_4"
    }
  ],
  "samplers": [
    {
      "magFilter": 9728,
      "minFilter": 9728,
      "wrapS": 10497,
      "wrapT": 10497
    },
    {
      "magFilter": 9729,
      "minFilter": 9987,
      "wrapS": 10497,
      "wrapT": 10497
    }
  ],
  "scene": 0,
  "scenes": [
    {
      "name": "Sketchfab_Scene",
      "nodes": [
        0
      ]
    }
  ],
  "textures": [
    {
      "sampler": 0,
      "source": 0
    },
    {
      "sampler": 0,
      "source": 1
    },
    {
      "sampler": 0,
      "source": 2
    },
    {
      "sampler": 1,
      "source": 1
    }
  ]
}
