{
  "accessors": [
    {
      "bufferView": 2,
      "componentType": 5126,
      "count": 47519,
      "max": [
        24.826799392700195,
        -0.000699999975040555,
        11.640800476074219
      ],
      "min": [
        -24.768400192260742,
        -1.9457000494003296,
        -11.700200080871582
      ],
      "type": "VEC3"
    },
    {
      "bufferView": 2,
      "byteOffset": 570228,
      "componentType": 5126,
      "count": 47519,
      "max": [
        1.0,
        1.0,
        0.9999315738677979
      ],
      "min": [
        -1.0,
        -0.9999948740005493,
        -0.9997826218605042
      ],
      "type": "VEC3"
    },
    {
      "bufferView": 1,
      "componentType": 5126,
      "count": 47519,
      "max": [
        0.98580002784729,
        0.9976000189781189
      ],
      "min": [
        0.002899999963119626,
        0.0038999998942017555
      ],
      "type": "VEC2"
    },
    {
      "bufferView": 0,
      "componentType": 5125,
      "count": 90108,
      "type": "SCALAR"
    },
    {
      "bufferView": 2,
      "byteOffset": 1140456,
      "componentType": 5126,
      "count": 466,
      "max": [
        23.855899810791016,
        -0.9595000147819519,
        11.572199821472168
      ],
      "min": [
        -24.357799530029297,
        -1.9457000494003296,
        -6.056099891662598
      ],
      "type": "VEC3"
    },
    {
      "bufferView": 2,
      "byteOffset": 1146048,
      "componentType": 5126,
      "count": 466,
      "max": [
        0.050598062574863434,
        -0.9086644649505615,
        0.4162837266921997
      ],
      "min": [
        -0.24119359254837036,
        -0.9989230036735535,
        -0.06360077112913132
      ],
      "type": "VEC3"
    },
    {
      "bufferView": 1,
      "byteOffset": 380152,
      "componentType": 5126,
      "count": 466,
      "max": [
        0.8956000208854675,
        0.9096999764442444
      ],
      "min": [
        0.04699999839067459,
        0.0038999998942017555
      ],
      "type": "VEC2"
    },
    {
      "bufferView": 0,
      "byteOffset": 360432,
      "componentType": 5125,
      "count": 1770,
      "type": "SCALAR"
    }
  ],
  "asset": {
    "extras": {
      "author": "Alejo09Games (https://sketchfab.com/Alejo09Games)",
      "license": "CC-BY-4.0 (http://creativecommons.org/licenses/by/4.0/)",
      "source": "https://sketchfab.com/3d-models/teclado-de-computadora-pc-computer-1f7cdc4591ac4137a949164c068f6c7d",
      "title": "Teclado de Computadora/ PC/ Computer"
    },
    "generator": "Sketchfab-14.87.0",
    "version": "2.0"
  },
  "bufferViews": [
    {
      "buffer": 0,
      "byteLength": 367512,
      "name": "floatBufferViews",
      "target": 34963
    },
    {
      "buffer": 0,
      "byteLength": 383880,
      "byteOffset": 367512,
      "byteStride": 8,
      "name": "floatBufferViews",
      "target": 34962
    },
    {
      "buffer": 0,
      "byteLength": 1151640,
      "byteOffset": 751392,
      "byteStride": 12,
      "name": "floatBufferViews",
      "target": 34962
    }
  ],
  "buffers": [
    {
      "byteLength": 1903032,
      "uri": "scene.bin"
    }
  ],
  "extensionsUsed": [
    "KHR_materials_specular"
  ],
  "images": [
    {
      "uri": "textures/10105_Computer_Keyboard_v1_baseColor.jpeg"
    }
  ],
  "materials": [
    {
      "doubleSided": true,
      "extensions": {
        "KHR_materials_specular": {
          "specularColorFactor": [
            1.0,
            1.0,
            1.0
          ],
          "specularFactor": 1.0
        }
      },
      "name": "10105_Computer_Keyboard_v1",
      "pbrMetallicRoughness": {
        "baseColorTexture": {
          "index": 0
        },
        "metallicFactor": 0.0,
        "roughnessFactor": 0.15981735159817356
      }
    }
  ],
  "meshes": [
    {
      "name": "Object_0",
      "primitives": [
        {
          "attributes": {
            "NORMAL": 1,
            "POSITION": 0,
            "TEXCOORD_0": 2
          },
          "indices": 3,
          "material": 0,
          "mode": 4
        }
      ]
    },
    {
      "name": "Object_1",
      "primitives": [
        {
          "attributes": {
            "NORMAL": 5,
            "POSITION": 4,
            "TEXCOORD_0": 6
          },
          "indices": 7,
          "material": 0,
          "mode": 4
        }
      ]
    }
  ],
  "nodes": [
    {
      "children": [
        1
      ],
      "matrix": [
        1.0,
        0.0,
        0.0,
        0.0,
        0.0,
        2.220446049250313e-16,
        -1.0,
        0.0,
        0.0,
        1.0,
        2.220446049250313e-16,
        0.0,
        0.0,
        0.0,
        0.0,
        1.0
      ],
      "name": "Sketchfab_model"
    },
    {
      "children": [
        2,
        3
      ],
      "name": "10105_Computer Keyboard_v1_L3.obj.cleaner.materialmerger.gles"
    },
    {
      "mesh": 0,
      "name": "Object_2"
    },
    {
      "mesh": 1,
      "name": "Object_3"
    }
  ],
  "samplers": [
    {
      "magFilter": 9729,
      "minFilter": 9987,
      "wrapS": 10497,
      "wrapT": 10497
    }
  ],
  "scene": 0,
  "scenes": [
    {
      "name": "Sketchfab_Scene",
      "nodes": [
        0
      ]
    }
  ],
  "textures": [
    {
      "sampler": 0,
      "source": 0
    }
  ]
}
